HIERARCHY
ROOT Hips
{
 OFFSET 0.000000 0.000000 0.000000
 CHANNELS 6 Xposition Yposition Zposition Yrotation Xrotation Zrotation
 JOINT Chest
 {
  OFFSET 0.000000 9.588913 -0.003946
  CHANNELS 3 Yrotation Xrotation Zrotation
  JOINT Chest2
  {
   OFFSET 0.000000 9.541882 0.008053
   CHANNELS 3 Yrotation Xrotation Zrotation
   JOINT Chest3
   {
    OFFSET 0.000000 9.501360 0.000000
    CHANNELS 3 Yrotation Xrotation Zrotation
    JOINT Chest4
    {
     OFFSET 0.000000 9.491660 0.000000
     CHANNELS 3 Yrotation Xrotation Zrotation
     JOINT Neck
     {
      OFFSET 0.000000 14.331917 0.000000
      CHANNELS 3 Yrotation Xrotation Zrotation
      JOINT Head
      {
       OFFSET 0.000000 8.884799 0.017034
       CHANNELS 3 Yrotation Xrotation Zrotation
       End Site
       {
        OFFSET 0.000000 16.896195 0.008993
       }
      }
     }
     JOINT RightCollar
     {
      OFFSET -2.923010 9.499495 0.000000
      CHANNELS 3 Yrotation Xrotation Zrotation
      JOINT RightShoulder
      {
       OFFSET -13.795216 0.000000 0.000000
       CHANNELS 3 Yrotation Xrotation Zrotation
       JOINT RightElbow
       {
        OFFSET -30.272209 0.000000 0.000000
        CHANNELS 3 Yrotation Xrotation Zrotation
        JOINT RightWrist
        {
         OFFSET -24.478199 0.000000 0.000000
         CHANNELS 3 Yrotation Xrotation Zrotation
         End Site
         {
          OFFSET -18.090752 0.000000 0.000000
         }
        }
       }
      }
     }
     JOINT LeftCollar
     {
      OFFSET 2.923010 9.499495 0.000000
      CHANNELS 3 Yrotation Xrotation Zrotation
      JOINT LeftShoulder
      {
       OFFSET 13.795216 0.000000 0.000000
       CHANNELS 3 Yrotation Xrotation Zrotation
       JOINT LeftElbow
       {
        OFFSET 30.272209 0.000000 0.000000
        CHANNELS 3 Yrotation Xrotation Zrotation
        JOINT LeftWrist
        {
         OFFSET 24.478199 0.000000 0.000000
         CHANNELS 3 Yrotation Xrotation Zrotation
         End Site
         {
          OFFSET 18.090752 0.000000 0.000000
         }
        }
       }
      }
     }
    }
   }
  }
 }
 JOINT RightHip
 {
  OFFSET -7.826875 0.019532 0.001973
  CHANNELS 3 Yrotation Xrotation Zrotation
  JOINT RightKnee
  {
   OFFSET 0.000000 -40.546152 -0.001885
   CHANNELS 3 Yrotation Xrotation Zrotation
   JOINT RightAnkle
   {
    OFFSET 0.000000 -39.417092 -0.003189
    CHANNELS 3 Yrotation Xrotation Zrotation
    JOINT RightToe
    {
     OFFSET 0.000000 -7.579396 17.243563
     CHANNELS 3 Yrotation Xrotation Zrotation
     End Site
     {
      OFFSET 0.000000 -1.500329 6.694466
     }
    }
   }
  }
 }
 JOINT LeftHip
 {
  OFFSET 7.826875 0.019532 0.001973
  CHANNELS 3 Yrotation Xrotation Zrotation
  JOINT LeftKnee
  {
   OFFSET 0.000000 -40.546152 -0.001885
   CHANNELS 3 Yrotation Xrotation Zrotation
   JOINT LeftAnkle
   {
    OFFSET 0.000000 -39.417092 -0.003189
    CHANNELS 3 Yrotation Xrotation Zrotation
    JOINT LeftToe
    {
     OFFSET 0.000000 -7.579396 17.243563
     CHANNELS 3 Yrotation Xrotation Zrotation
     End Site
     {
      OFFSET 0.000000 -1.500329 6.694466
     }
    }
   }
  }
 }
}
MOTION
Frames: 9
Frame Time: 0.008333
63.339638 87.294499 -30.380848 101.694639 -7.556603 2.927459 0.180093 5.841182 1.044772 0.073383 3.382336 0.697833 0.098225 4.227762 0.873351 0.073387 3.382339 0.697833 -5.929214 19.130290 -2.190636 -10.163001 -0.237091 -2.160263 -3.143002 0.235082 -6.770516 -19.477835 -4.359750 72.748403 37.342098 -47.173205 32.198516 10.221015 -13.561876 6.183317 -4.121190 4.358033 0.809009 8.706263 -12.615183 -85.472528 -36.430362 -18.973003 -40.260539 -7.591269 -6.934254 1.370453 -20.785114 1.734625 -14.319783 -2.225117 16.932494 -2.393723 -5.145387 -8.977146 8.243812 0.078139 -0.724259 0.123383 3.787723 -3.333889 11.223507 4.352319 28.650752 4.787002 0.945549 -16.431815 -15.893843 0.058492 0.441526 1.284924
63.361349 87.340290 -30.451208 101.891925 -7.545754 2.874787 0.196279 5.807872 1.049260 0.093865 3.355145 0.687086 0.123686 4.193738 0.860087 0.093869 3.355149 0.687085 -5.418605 19.163697 -2.199891 -9.225449 -0.191718 -2.336997 -3.187768 0.189099 -6.757017 -19.798990 -4.335201 72.830335 37.500323 -47.584185 32.058540 10.425503 -13.651109 6.112294 -4.275755 4.236134 0.773255 8.407915 -13.071853 -85.590067 -36.869119 -19.285038 -41.191235 -7.886313 -7.009505 1.331108 -20.908115 1.895452 -14.312647 -2.291281 16.677106 -2.417770 -5.176686 -8.844357 8.271900 0.104663 -0.758644 0.131001 3.727628 -3.330240 11.208446 4.357714 28.471697 4.640188 0.686854 -16.388817 -16.197467 0.055059 0.358363 1.489892
63.376891 87.377475 -30.528328 102.071481 -7.510266 2.814660 0.218986 5.754185 1.054181 0.118186 3.325338 0.676076 0.153944 4.156438 0.846525 0.118191 3.325342 0.676075 -4.868696 19.202046 -2.207406 -8.216787 -0.134827 -2.522876 -3.239864 0.158127 -6.744096 -20.087438 -4.303462 72.930330 37.653365 -47.983783 31.926346 10.624551 -13.742350 6.039364 -4.413473 4.131401 0.756809 8.128947 -13.498748 -85.727072 -37.326197 -19.627458 -42.152348 -8.249727 -7.085835 1.289296 -21.028290 2.018271 -14.290815 -2.357232 16.445203 -2.451293 -5.194369 -8.763640 8.313162 0.120147 -0.751480 0.133874 3.696599 -3.327594 11.182674 4.405723 28.239357 4.525598 0.471012 -16.283106 -16.544565 0.043813 0.270311 1.673587
63.387841 87.406565 -30.615136 102.236077 -7.461573 2.759855 0.237959 5.690386 1.044254 0.146986 3.294046 0.665789 0.189806 4.117275 0.833904 0.146990 3.294051 0.665788 -4.283548 19.245040 -2.213462 -7.144470 -0.066203 -2.716990 -3.297917 0.136966 -6.729634 -20.342310 -4.264438 73.037386 37.801364 -48.365812 31.804119 10.824519 -13.835412 5.966761 -4.536481 4.039303 0.749591 7.880607 -13.894836 -85.879678 -37.801392 -19.986668 -43.131679 -8.670800 -7.162186 1.241434 -21.136013 2.108042 -14.271819 -2.419066 16.242276 -2.490636 -5.213574 -8.700306 8.365405 0.132804 -0.736385 0.136428 3.715833 -3.314821 11.126565 4.461524 27.949927 4.439325 0.304283 -16.107720 -16.858727 0.028686 0.178362 1.782628
63.394375 87.427869 -30.714787 102.384891 -7.404899 2.725173 0.253813 5.618923 1.003817 0.179425 3.263574 0.657407 0.230238 4.079130 0.823692 0.179428 3.263578 0.657406 -3.668586 19.292163 -2.217808 -6.018614 0.013928 -2.917002 -3.354040 0.119103 -6.712190 -20.573925 -4.218641 73.139234 37.937214 -48.723066 31.703839 11.025031 -13.929151 5.898408 -4.646195 3.948805 0.739425 7.671374 -14.257180 -86.039431 -38.296398 -20.344981 -44.120550 -9.131175 -7.249724 1.189056 -21.218690 2.165522 -14.272609 -2.475133 16.072720 -2.532969 -5.246968 -8.657415 8.430103 0.146952 -0.711202 0.139830 3.800198 -3.291572 11.018824 4.518204 27.610094 4.376308 0.115023 -15.884391 -16.827263 0.038797 0.102730 1.609735
63.397428 87.441873 -30.831287 102.523893 -7.352820 2.728173 0.266828 5.546923 0.919055 0.213068 3.236383 0.650558 0.272197 4.045085 0.815407 0.213071 3.236387 0.650558 -3.030680 19.343672 -2.219044 -4.852325 0.106658 -3.118029 -3.405342 0.103345 -6.691759 -20.784484 -4.171011 73.227553 38.048771 -49.059014 31.638812 11.221953 -14.018479 5.837922 -4.739288 3.853265 0.724766 7.496819 -14.583161 -86.206519 -38.815998 -20.696635 -45.112216 -9.606363 -7.352479 1.144562 -21.280289 2.197150 -14.316036 -2.531543 15.936916 -2.581152 -5.295365 -8.638197 8.510360 0.167079 -0.672616 0.145224 3.937476 -3.246044 10.841730 4.555353 27.230328 4.317932 -0.149573 -15.637730 -16.195931 0.085009 0.068842 1.032517
63.398281 87.448633 -30.960746 102.685808 -7.311092 2.737099 0.250726 5.480265 0.823309 0.247712 3.212360 0.643911 0.315417 4.014999 0.807380 0.247715 3.212365 0.643911 -2.377236 19.399537 -2.215275 -3.659832 0.212314 -3.314093 -3.459603 0.090151 -6.665560 -20.964820 -4.125959 73.297245 38.136146 -49.380618 31.606849 11.409946 -14.101733 5.785922 -4.814934 3.756397 0.711925 7.345262 -14.878471 -86.387991 -39.354937 -21.054855 -46.097239 -10.069038 -7.456360 1.111728 -21.357321 2.216595 -14.374417 -2.598535 15.831563 -2.643507 -5.346282 -8.609671 8.603757 0.196833 -0.650888 0.155517 4.072818 -3.166190 10.629132 4.499952 26.820995 4.255624 -0.339575 -15.394444 -15.322026 0.124393 0.096936 0.371989
63.400513 87.448138 -31.092284 102.784717 -7.283430 2.692804 0.295025 5.432925 0.788718 0.283981 3.189890 0.636623 0.360666 3.986853 0.798563 0.283984 3.189894 0.636623 -1.714876 19.458964 -2.205635 -2.453582 0.329510 -3.501326 -3.520265 0.079383 -6.631168 -21.111739 -4.083973 73.348984 38.207479 -49.684066 31.600859 11.584599 -14.177912 5.741016 -4.869017 3.664237 0.704746 7.204775 -15.151133 -86.587824 -39.901601 -21.429918 -47.070030 -10.495884 -7.552070 1.086107 -21.367053 2.257629 -14.380802 -2.678298 15.751917 -2.722913 -5.360429 -8.602132 8.715716 0.196202 -0.619055 0.155997 4.276275 -3.055644 10.456621 4.357286 26.418578 4.243937 -0.367562 -15.162477 -14.611596 0.118870 0.137277 -0.096245
63.407507 87.441582 -31.227454 102.833394 -7.293789 2.597760 0.382828 5.427322 0.810420 0.321317 3.169797 0.628743 0.407248 3.961678 0.789013 0.321319 3.169801 0.628743 -1.050078 19.520226 -2.191586 -1.244984 0.454925 -3.680203 -3.580381 0.072181 -6.588333 -21.235799 -4.047091 73.387731 38.268113 -49.957315 31.619812 11.740323 -14.244120 5.708412 -4.893898 3.580123 0.699261 7.071323 -15.407619 -86.803382 -40.444295 -21.809909 -48.037808 -10.874338 -7.635814 1.067607 -21.320611 2.344568 -14.348677 -2.761526 15.691890 -2.812897 -5.356998 -8.587544 8.835830 0.176136 -0.601076 0.154539 4.555315 -2.922283 10.333234 4.260261 26.063564 4.374294 -0.446539 -14.958782 -14.128737 0.125155 0.143896 -0.366064
